<?xml version="1.0" encoding="utf-8"?>
<!-- Generator: Adobe Illustrator 24.0.2, SVG Export Plug-In . SVG Version: 6.00 Build 0)  -->
<svg version="1.1" xmlns="http://www.w3.org/2000/svg" xmlns:xlink="http://www.w3.org/1999/xlink" x="0px" y="0px"
	 viewBox="0 0 792 612" style="enable-background:new 0 0 792 612;" xml:space="preserve">
<style type="text/css">
	.st0{fill:#F7F294;stroke:#6D6B60;stroke-miterlimit:10;}
	.st1{fill:none;stroke:#9C8975;stroke-miterlimit:10;}
	.st2{fill:#4DB567;stroke:#000000;stroke-miterlimit:10;}
	.st3{fill:#F7F294;}
	.st4{fill:#1F3A2B;}
	.st5{fill:#040000;}
</style>
<g id="background">
</g>
<g id="moon">
	<path class="st0" d="M99.9,84.43c-53.38,47.44-74.78,117.36-54.03,170.93c28.8,74.35,139.28,118.46,238.72,65.82
		c-14.88,2.54-36.77,4.79-62.87,1.96c-23.74-2.58-52.41-5.69-76.63-24.55c-24.21-18.85-32.3-44.36-40.28-70.73
		C88.34,173.4,92.06,122.35,99.9,84.43z"/>
</g>
<g id="lines">
	<path class="st1" d="M147.15,300.26c46.2-51.25,105.6-83.17,146.27-67.78c53.95,20.42,89.39,129.56,34.38,255.42"/>
	<path class="st2" d="M337.74,552.64l-36.12-4.75c-5.09-0.67-8.67-5.33-8-10.42l6.03-45.86c0.67-5.09,5.33-8.67,10.42-8l36.12,4.75
		c5.09,0.67,8.67,5.33,8,10.42l-6.03,45.86C347.5,549.73,342.83,553.31,337.74,552.64z"/>
	<line class="st2" x1="351.16" y1="493.42" x2="320.03" y2="521.64"/>
	<line class="st2" x1="303.9" y1="487.09" x2="323.91" y2="518.12"/>
	<g>
		<polygon class="st3" points="392.68,321.27 688.38,321.77 392.68,322.27 		"/>
	</g>
</g>
<g id="star">
	<polygon class="st0" points="323.23,347.74 320.93,341.6 314.57,340.02 319.7,335.93 319.24,329.39 324.71,333.01 330.78,330.55 
		329.04,336.87 333.25,341.89 326.7,342.18 	"/>
	<polygon class="st0" points="539.85,265.5 537.55,259.36 531.19,257.78 536.31,253.69 535.85,247.15 541.32,250.77 547.4,248.31 
		545.66,254.63 549.87,259.65 543.32,259.94 	"/>
	<polygon class="st0" points="699.63,444.06 697.33,437.92 690.97,436.33 696.1,432.25 695.64,425.71 701.11,429.32 707.18,426.86 
		705.44,433.18 709.65,438.2 703.11,438.5 	"/>
</g>
<g id="letter">
	<g>
		<path class="st4" d="M504.07,341.03l-4.79,9.56l-4.41,0.61h-5.94l-3.26,0.38l-2.5-0.38l-12.08,1.15l-3.45-1.15l-0.77,0.19
			c-1.28,0.51-3.45,1.03-6.52,1.54h-6.9l-1.53-0.58h-0.58c-1.28,0-3.13,0.27-5.56,0.79c-1.92,0.43-4.28,0.64-7.1,0.64l-3.17-0.66
			l-0.57,2.49h-2.27l-0.58,9.03l1.04,1.54l-0.37,2.88l-0.09,4.99c0,5.25-0.51,8.76-1.54,10.55l1.54,2.11l-1.15,5.57l1.15,1.54
			l-2.11,3.07v1.54l-1.15,2.11l0.77,4.22l-0.38,8.06l-1.34,3.64c0.13,0.13,0.19,0.45,0.19,0.96c0-0.25-0.19,0.58-0.58,2.5
			c0,0.13,0.06,0.38,0.19,0.77c0,0.38,0,0.71,0,0.96c0,1.41-0.51,2.75-1.54,4.03l0.77,2.69c0,0.9-0.07,1.47-0.19,1.73l-0.19,0.58
			c-0.26,0.77-0.38,1.53-0.38,2.3c0,2.43,0.25,4.48,0.77,6.14c-2.82,0.51-4.41,0.77-4.8,0.77c-1.15,0-2.11-0.13-2.88-0.38
			l-0.38-0.19c-3.33-0.77-4.99-3.84-4.99-9.21c0-0.64,0-1.54,0-2.69c0-1.02-0.1-2.46-0.29-4.32c-0.19-1.85-0.29-3.23-0.29-4.13
			c0-1.28,0.19-2.37,0.58-3.26l0.77-7.87c-1.03-1.41-1.54-2.56-1.54-3.46c0-0.25,0.25-0.77,0.77-1.54c-0.77-1.02-1.15-1.79-1.15-2.3
			c0-1.02,0.32-1.85,0.96-2.49c0-1.15,0.51-2.75,1.54-4.8c-0.26-1.02-0.38-2.11-0.38-3.26c0.89,0,1.34-0.45,1.34-1.34
			c0-0.25-0.13-0.67-0.38-1.25c-0.26-0.58-0.38-1.18-0.38-1.82l0.77,0.77l-0.96-1.73c0-2.43,0.32-4.54,0.96-6.33v-5.57l-0.96-4.03
			l0.96-7.49l-0.96-5.57l0.38-1.92l-2.88,0.19l-2.11,1.15l-1.54-0.19v0.77c-2.69,0-5.31-0.19-7.87-0.58l-0.58,1.54l-7.48-2.5
			l-9.98-0.19l-6.33,1.73c-5.12-4.35-7.68-7.49-7.68-9.4c0-1.15,0.19-2.3,0.58-3.45v0.58l4.22-3.45l3.65,0.18l12.86,2.13l3.26-1.15
			l9.79,0.22l7.68,1.12l4.99-1.92l1.73-4.99l7.68,1.92h0.38l0.38,0.52l2.69,2.95l0.77,0.17l2.69-1.15l5.57,1.15
			c5.5-0.77,8.76-1.15,9.79-1.15c1.54,0,3.13,0.32,4.8,0.96c0.38,0,1.15,0.07,2.3,0.19c1.79,0,2.94,0,3.46,0h1.34l6.53-1.15
			l5.57,0.82l0.77,0.33l2.88-1.15l4.03,1.15h9.6h4.22H504.07z"/>
		<path class="st4" d="M602.91,372.12c0,2.95-0.9,5.63-2.69,8.06c-3.45,1.41-6.33,2.11-8.64,2.11c-0.51,0-1.22-0.13-2.11-0.38
			c-0.9-0.25-1.47-0.38-1.73-0.38l-4.99,2.5l-4.61-0.38l-2.69,0.96l-1.34-0.38l-3.45,1.92l-2.88-0.77c-3.45,0-6.21,0-8.25,0h0.77
			l-3.47,0.96h-0.58l-1.35,1.34l-2.7-0.96l-1.54,0.96l-4.24-1.34l-2.51,1.34c-3.08-0.77-4.88-1.15-5.39-1.15
			c-1.42,0-3.15,0.45-5.2,1.34l-8.67,0.77l-0.77-0.96l-3.28,0.83l-0.19,1.11l1.71,9.6l-0.41,0.96l0.58,1.92v2.49
			c0.64,1.92,1.09,3.84,1.34,5.75l2.3,2.3l-0.38,1.15l3.84,4.79c3.96,2.81,6.97,4.22,9.02,4.22h0.38c0.25,0,0.58-0.06,0.96-0.19
			c0.38,0,0.64,0,0.77,0c0.51,0,1.21,0.19,2.11,0.58l1.73-0.19c1.66-0.38,4.03-0.83,7.1-1.34l2.11-1.15l0.38-0.77l1.34-0.19
			l1.54-0.96l0.96,0.58l3.07-0.96l2.5-1.54l0.96-1.34l3.26-2.5l2.49-0.38l4.61-3.45c3.2-0.51,5.5-3.07,6.91-7.68l0.58,0.19
			l0.19-0.58l2.5-0.19l3.65-3.07l1.34-0.19c0.38-0.13,0.83-0.19,1.34-0.19c2.43,0,3.9,2.37,4.42,7.1l-8.45,9.98l-2.11,0.58
			l-0.77,1.15l-3.65,3.84l-5.18,3.07l-4.22,4.03l-1.34-0.19l-1.54,1.54l-8.64,3.26l-3.46,3.84l-2.49-0.96l-0.96,1.73l-1.73-0.58
			l-0.96,0.96l-6.33-1.15l-6.53,2.69l-6.53-2.11l-8.25-3.84c-7.04-3.33-12.48-12.54-16.31-27.64v-2.11l-1.54-4.41l1.54-1.92
			l-0.96-5.37l-0.19-1.73l-3.26-3.65v-2.3c0-3.71,1.02-6.27,3.07-7.68c0.38-1.02,1.09-1.98,2.11-2.88l-0.77-0.58v-5.37v-2.69
			l2.34-6.14l0.54-3.07l-1.92,0.19h-0.77c-1.79,0-3.33-0.61-4.61-1.82c-1.28-1.21-1.92-2.65-1.92-4.32c0-1.92,1.21-4.09,3.65-6.53
			l1.34-1.34l1.73-0.77c2.04-0.89,3.65-1.34,4.8-1.34h0.96c0.25,0,0.89,0,1.92,0h0.77l1.92-3.26l8.64,0.58l0.58,0.58
			c1.15-0.22,2.88-0.33,5.18-0.33l3.84-0.82h0.96c1.66-0.51,3.26-1.54,4.8-3.07l2.88,1.73h0.96c0.64,0,1.37,0,2.21,0
			c0.83,0,1.37,0,1.63,0l19.19-1.73l1.92,1.15l2.69-0.68l1.54-1.81l3.84,2.5l1.34-1.15l4.22,1.73l2.88-0.58l1.54,0.58l6.14-0.58
			l1.34,0.96l3.07,0.58c2.94,0.51,4.41,1.92,4.41,4.22c0,1.54-0.55,2.88-1.63,4.03c-1.09,1.15-2.21,1.73-3.36,1.73h-0.77l-2.11,1.15
			l-3.84-1.15l-1.73,0.19c-0.38,0.13-0.9,0.19-1.54,0.19c-1.28,0-2.43-0.25-3.46-0.77l-0.58-0.77c-1.28,0.26-2.11,0.38-2.5,0.38
			c-0.51,0-1.15-0.13-1.92-0.38c-1.28,0.9-3.65,1.66-7.1,2.3c-1.79,0-3.78-0.06-5.95-0.19c0-0.13,0.25-0.58,0.77-1.34l-4.99,1.54
			c-0.13,0-0.26,0-0.38,0c-0.9,0-2.56,0.9-4.99,2.69l-2.49-1.15l-1.15,0.77l-4.61-1.34l-2.69,1.34h-3.84l-5.76,1.15l-4.8,2.11
			l-1.34-0.77l-2.5,1.73h-2.5l-0.58,0.96l0.58,2.3l-3.26,3.83l1.54,0.19l0.02,5.36l2.08,2.33l-1.73,1.54
			c-1.28,2.17-1.92,3.64-1.92,4.41c0,0.51,0.38,0.9,1.15,1.15l2.3-0.77c0.64-0.13,1.28-0.19,1.92-0.19
			c1.92,0.26,3.33,0.51,4.22,0.77l3.45-1.34l3.07,0.58h1.73h2.11h3.07c1.02,0,1.85,0,2.5,0c0.51,0,1.54-0.45,3.07-1.34
			c1.02,0.51,2.5,0.77,4.41,0.77c0.25,0,0.7-0.06,1.34-0.19c0.64,0,1.15,0,1.54,0H558c-0.26,0-0.51-0.06-0.77-0.19h0.58
			c0.77,0,3.07,0.32,6.91,0.96c0.38-0.21,2.37-0.43,5.95-0.64c2.04-0.21,3.33-0.32,3.84-0.32c1.92,0,3.77,0.07,5.57,0.19l1.73-0.19
			c1.79-1.02,3.45-1.54,4.99-1.54c1.15,0,2.3,0.19,3.46,0.58l2.69-0.58l2.3,0.96l7.68-1.92V372.12z"/>
		<path class="st4" d="M743.01,437.95c-0.13,3.2-2.24,5.44-6.33,6.72l-7.29-3.46h-2.11l-2.5-1.92h-3.07l-2.3-3.84l-1.92-0.96
			l-2.5-4.41l-3.45-3.65v-1.54l-1.54-1.34l-0.38-3.07l-2.5-2.3l-4.03-9.02l-1.73-2.11l-0.77-5.37l-2.5-3.26l-4.03-0.58l-4.42,2.5
			l-0.96-0.96l-3.07,1.92l-0.96-2.11c-0.64,0.13-1.6,0.19-2.88,0.19c-1.41,0-2.43-0.06-3.07-0.19h-1.54l-4.03,2.11l-4.41-0.58h-0.77
			l-3.07,1.73l-2.49-0.96c-2.43,0-4.22-0.25-5.37-0.77h-0.96l-4.99,2.3l-1.92-2.11l-3.45-0.96l-0.77,0.58
			c-2.82,3.71-4.86,6.33-6.14,7.87l-3.07,0.77c-4.86,7.04-7.93,10.81-9.21,11.32l-0.77,0.19l-6.14,7.49h-0.77l-3.84,5.95l-7.29,4.03
			c-1.28,0.25-2.3,0.38-3.07,0.38c-2.43,0-4.73-0.9-6.91-2.69l2.3-4.8v-2.88l0.77-0.96l0.38-3.84l5.95-0.77l1.54-0.96
			c1.54-0.89,2.43-2.24,2.69-4.03c2.3-0.64,3.71-1.92,4.22-3.84c3.45-1.79,5.69-4.61,6.72-8.44l3.26-1.15l4.8-7.1
			c-1.03-1.41-1.79-3.2-2.3-5.37l4.03-3.26v-3.65l7.49,0.58l1.92-0.96c0.64-2.17,1.92-3.71,3.84-4.61l0.38-3.65l4.03-2.11
			c0.38-0.25,1.08-0.58,2.11-0.96v-1.15c0-1.15,0.25-2.17,0.77-3.07c2.69-1.92,4.09-4.54,4.22-7.87l2.69-0.58l0.96-1.73l1.34-0.19
			l3.65-6.91h0.96l1.54-0.72v-4.85h1.34c3.2-3.46,4.8-5.69,4.8-6.72l0.96-0.77l-0.96-2.88c3.07-3.71,5.57-5.63,7.48-5.76l3.65-3.07
			l4.22,4.22l5.37,2.88l0.58,4.99c0.64,0.77,1.15,1.54,1.54,2.3c1.79,2.18,2.81,4.42,3.07,6.72l1.15,4.8l2.88,4.22l1.73,6.33
			l0.38,3.07l3.45,4.22l-0.77,1.34l1.54,1.34v3.84l0.38,2.88c-0.38,1.92-0.58,2.62-0.58,2.11l0.96,0.96l1.15,1.54
			c1.66-0.13,2.88-0.32,3.65-0.58h5.76c1.02,0.26,1.79,0.38,2.3,0.38c0.77,0,1.57-0.29,2.4-0.86c0.83-0.58,2.14-0.86,3.93-0.86
			c1.28,0,3.2,0.64,5.76,1.92l5.76,0.38c0.25,1.03,0.38,1.79,0.38,2.3c0,1.92-0.96,3.39-2.88,4.41l-2.88-0.96l-5.37,3.84L726.7,394
			l-1.92,0.96l-4.22,0.38v-0.77l-4.99,1.15l-0.19,1.15l0.38,4.41l2.5,3.46l0.38,3.46l4.41,6.14l-0.38,2.11l1.73,1.73l4.61,7.1
			l3.26,3.26l0.77,1.54l3.45,1.73l1.34,3.07L743.01,437.95z M695.61,386.14h-0.19l-2.11-2.11l2.3-1.91
			c-1.04-0.89-1.57-2.23-1.57-4.02l-1.37-0.76l-0.98-7.84l-2.25-3.3l-0.58-3.28l-0.38-0.77h-1.34l-0.58-6.91l-1.73-2.5l-0.96-0.38
			l-0.57-0.77l-0.77,1.34l-4.6,5.76l-1.54,3.26l-3.84,3.46l-0.77,3.45l-4.41,1.92c-0.64,3.84-2.56,6.59-5.75,8.25l-1.34,3.84
			l-2.49,2.5h1.73c2.3,0.77,4.22,1.15,5.76,1.15h0.77c0.77-0.38,1.54-0.58,2.3-0.58c0.89,0,1.92,0.26,3.07,0.77l0.77,0.19
			c0.77-0.13,1.98-0.19,3.65-0.19c2.05,0,3.58,0.07,4.61,0.19l6.72-0.77l4.41,2.3c2.17-0.89,3.45-1.79,3.84-2.69
			c0,0.13,0.06,0.19,0.19,0.19V386.14z"/>
	</g>
	<g>
		<path class="st5" d="M287.96,271.78l-1.55,1.55c0.49-0.06,1.23-0.2,2.24-0.41c1-0.21,1.99-0.32,2.97-0.32
			c0.73,0.12,1.34,0.37,1.83,0.73c0.49,0.37,0.79,1.07,0.91,2.1c0.24,1.46,0.62,2.94,1.14,4.43c0.52,1.49,0.91,2.97,1.19,4.43
			s0.26,2.85-0.05,4.16c-0.31,1.31-1.13,2.48-2.47,3.52c-1.4,2.13-2.94,3.91-4.61,5.34c-1.68,1.43-3.42,2.27-5.25,2.51
			c-1.22,0.18-2.56,0.02-4.02-0.5c-1.46-0.52-2.53-1.42-3.2-2.69c-0.18,0.12-0.34,0.14-0.46,0.05c-0.12-0.09-0.24-0.2-0.37-0.32
			c-0.12-0.12-0.23-0.15-0.32-0.09c-0.09,0.06-0.17,0.03-0.23-0.09c-0.06-0.18-0.09-0.43-0.09-0.73v-0.18v-0.18
			c0.06-2.13,0.26-4.28,0.59-6.44c0.33-2.16,0.85-4.26,1.55-6.3c0.7-2.04,1.61-3.96,2.74-5.75c1.13-1.8,2.57-3.39,4.34-4.79
			c0.61-0.37,1.28-0.49,2.01-0.37c0.12,0,0.27,0,0.46,0S287.72,271.54,287.96,271.78z M284.86,277.99
			c-0.37-0.06-0.58-0.18-0.64-0.37c-0.06-0.18-0.05-0.41,0.05-0.69s0.21-0.59,0.37-0.96c0.15-0.37,0.23-0.73,0.23-1.1
			c-1.28,1.16-2.27,2.56-2.97,4.2c-0.7,1.64-1.2,3.33-1.51,5.07c-0.31,1.73-0.44,3.42-0.41,5.07c0.03,1.64,0.11,3.08,0.23,4.29
			c0.12,1.04,0.33,1.87,0.64,2.51c0.3,0.64,0.76,1.02,1.37,1.14c0.67,0.18,1.55,0,2.65-0.55c1.58-0.79,2.86-1.89,3.84-3.29
			c0.97-1.4,1.77-2.89,2.38-4.48c0.24-0.85,0.44-1.87,0.59-3.06c0.15-1.19,0.11-2.3-0.14-3.33c-0.31-1.4-1.08-2.42-2.33-3.06
			C287.95,278.77,286.5,278.3,284.86,277.99z"/>
		<path class="st5" d="M309.06,285.76c1.04-1.03,2.09-2.15,3.15-3.33c1.06-1.19,2.18-2.33,3.33-3.42c1.16-1.1,2.34-2.08,3.56-2.97
			c1.22-0.88,2.5-1.6,3.84-2.15c0.3-0.12,0.59-0.15,0.87-0.09c0.28,0.06,0.56,0.03,0.87-0.09c0.49,0,0.91,0,1.28,0s0.7,0.12,1,0.37
			c0.85,0.55,1.54,1.32,2.06,2.33c0.52,1,0.96,2.12,1.32,3.33c0.24,0.67,0.38,1.31,0.41,1.92c0.03,0.61,0.2,1.31,0.5,2.1
			c0.37,1.16,0.78,2.33,1.23,3.52c0.46,1.19,0.62,2.33,0.5,3.42c-0.06,0.31-0.15,0.56-0.28,0.78c-0.12,0.21-0.27,0.47-0.46,0.78
			c-0.12,0.24-0.34,0.55-0.64,0.91s-0.61,0.64-0.91,0.82c-0.31,0.24-0.5,0.44-0.59,0.59c-0.09,0.15-0.38,0.32-0.87,0.5
			c-0.79-1.16-1.4-2.4-1.83-3.74c-0.43-1.34-0.79-2.74-1.1-4.2c-0.3-1.46-0.58-2.95-0.82-4.48c-0.24-1.52-0.55-3.07-0.91-4.66
			c-0.12-0.43-0.5-0.67-1.14-0.73c-0.64-0.06-1.37,0.14-2.19,0.59c-0.82,0.46-1.69,1.17-2.6,2.15c-0.91,0.97-1.73,2.22-2.46,3.74
			c-0.49,1.1-0.95,2.24-1.37,3.42s-0.9,2.37-1.41,3.56c-0.52,1.19-1.13,2.34-1.83,3.47c-0.7,1.13-1.54,2.15-2.51,3.06
			c-0.3,0.31-0.52,0.34-0.64,0.09c-0.12-0.24-0.43-0.46-0.91-0.64c-0.37-0.12-0.56-0.24-0.59-0.37c-0.03-0.12-0.14-0.49-0.32-1.1
			c-0.37-1.28-0.75-2.74-1.14-4.38c-0.4-1.64-0.82-3.38-1.28-5.21s-0.93-3.67-1.42-5.53c-0.49-1.86-0.98-3.61-1.46-5.25l-0.55-1.64
			c0.12-0.24,0.35-0.46,0.68-0.64c0.33-0.18,0.69-0.33,1.05-0.46c0.37-0.12,0.76-0.09,1.19,0.09c0.43,0.18,0.76,0.27,1,0.27
			c0.67,0,1.26,0.43,1.78,1.28c0.52,0.85,0.96,1.93,1.32,3.24c0.37,1.31,0.65,2.74,0.87,4.29
			C308.86,282.88,309,284.36,309.06,285.76z"/>
		<path class="st5" d="M357.28,247.95c0,3.9,0.37,7.53,1.1,10.91c0.73,3.38,1.34,6.84,1.83,10.37c0.49,3.59,0.82,7.14,1,10.64
			c0.18,3.5,0.42,6.74,0.73,9.73c-0.18,0.37-0.26,0.79-0.23,1.28c0.03,0.49-0.11,0.88-0.41,1.19c-0.91,0.85-1.95,1.68-3.1,2.47
			c-1.16,0.79-2.44,1.52-3.84,2.19c-0.49,0.24-0.97,0.35-1.46,0.32c-0.49-0.03-0.97,0.02-1.46,0.14c-0.55,0.12-1.11,0.27-1.69,0.46
			c-0.58,0.18-1.17,0.21-1.78,0.09c-0.67-0.18-1.46-0.47-2.37-0.87c-0.91-0.4-1.83-0.87-2.74-1.42c-0.91-0.55-1.75-1.16-2.51-1.83
			c-0.76-0.67-1.32-1.4-1.69-2.19c-0.67-3.47-0.53-6.61,0.41-9.41c0.94-2.8,2.36-5.33,4.25-7.58c0.24-0.3,0.55-0.53,0.91-0.69
			c0.37-0.15,0.7-0.35,1-0.59c0.3-0.24,0.64-0.44,1-0.59c0.37-0.15,0.79-0.2,1.28-0.14c1.22,0.12,2.56,0.41,4.02,0.87
			c1.46,0.46,2.59,0.75,3.38,0.87v-1.37c0-1.58-0.11-3.18-0.32-4.79c-0.21-1.61-0.41-3.24-0.59-4.89s-0.32-3.33-0.41-5.07
			c-0.09-1.74-0.02-3.52,0.23-5.34c0.06-0.49,0.18-0.97,0.37-1.46c0.18-0.49,0.33-0.97,0.46-1.46c0.12-0.3,0.3-0.65,0.55-1.05
			c0.24-0.4,0.52-0.65,0.82-0.78c0.3-0.12,0.49-0.32,0.55-0.59s0.21-0.38,0.46-0.32c0.24,0.06,0.35,0.15,0.32,0.27
			C357.29,247.43,357.28,247.64,357.28,247.95z M356.73,290.51c0.06-0.67,0.08-1.63,0.05-2.88c-0.03-1.25-0.23-2.54-0.59-3.88
			c-0.37-1.34-0.96-2.62-1.78-3.84c-0.82-1.22-1.96-2.13-3.42-2.74c-0.67,0.06-1.45,0.17-2.33,0.32c-0.88,0.15-1.75,0.41-2.6,0.78
			s-1.64,0.87-2.37,1.51c-0.73,0.64-1.31,1.45-1.74,2.42c-0.37,1.1-0.37,2.51,0,4.25c0.37,1.73,1.34,3.39,2.92,4.98
			c0.91,0.55,1.89,0.87,2.92,0.96c1.04,0.09,2.08,0.08,3.15-0.05c1.06-0.12,2.1-0.37,3.1-0.73
			C355.04,291.24,355.94,290.87,356.73,290.51z"/>
		<path class="st5" d="M380.2,271.78l-1.55,1.55c0.49-0.06,1.23-0.2,2.24-0.41c1-0.21,1.99-0.32,2.97-0.32
			c0.73,0.12,1.34,0.37,1.83,0.73s0.79,1.07,0.91,2.1c0.24,1.46,0.62,2.94,1.14,4.43c0.52,1.49,0.91,2.97,1.19,4.43
			c0.27,1.46,0.26,2.85-0.04,4.16c-0.31,1.31-1.13,2.48-2.47,3.52c-1.4,2.13-2.94,3.91-4.61,5.34c-1.68,1.43-3.42,2.27-5.25,2.51
			c-1.22,0.18-2.56,0.02-4.02-0.5c-1.46-0.52-2.53-1.42-3.2-2.69c-0.18,0.12-0.33,0.14-0.46,0.05c-0.12-0.09-0.24-0.2-0.37-0.32
			c-0.12-0.12-0.23-0.15-0.32-0.09c-0.09,0.06-0.17,0.03-0.23-0.09c-0.06-0.18-0.09-0.43-0.09-0.73v-0.18v-0.18
			c0.06-2.13,0.26-4.28,0.59-6.44c0.33-2.16,0.85-4.26,1.55-6.3c0.7-2.04,1.61-3.96,2.74-5.75c1.13-1.8,2.57-3.39,4.34-4.79
			c0.61-0.37,1.28-0.49,2.01-0.37c0.12,0,0.27,0,0.46,0S379.96,271.54,380.2,271.78z M377.1,277.99c-0.37-0.06-0.58-0.18-0.64-0.37
			c-0.06-0.18-0.05-0.41,0.04-0.69c0.09-0.27,0.21-0.59,0.37-0.96c0.15-0.37,0.23-0.73,0.23-1.1c-1.28,1.16-2.27,2.56-2.97,4.2
			c-0.7,1.64-1.2,3.33-1.51,5.07c-0.31,1.73-0.44,3.42-0.41,5.07c0.03,1.64,0.11,3.08,0.23,4.29c0.12,1.04,0.33,1.87,0.64,2.51
			s0.76,1.02,1.37,1.14c0.67,0.18,1.55,0,2.65-0.55c1.58-0.79,2.86-1.89,3.84-3.29c0.97-1.4,1.77-2.89,2.38-4.48
			c0.24-0.85,0.44-1.87,0.59-3.06c0.15-1.19,0.11-2.3-0.14-3.33c-0.3-1.4-1.08-2.42-2.33-3.06
			C380.19,278.77,378.74,278.3,377.1,277.99z"/>
		<path class="st5" d="M401.3,285.76c1.04-1.03,2.08-2.15,3.15-3.33c1.06-1.19,2.18-2.33,3.33-3.42c1.16-1.1,2.34-2.08,3.56-2.97
			c1.22-0.88,2.5-1.6,3.84-2.15c0.3-0.12,0.59-0.15,0.87-0.09c0.27,0.06,0.56,0.03,0.87-0.09c0.49,0,0.91,0,1.28,0s0.7,0.12,1,0.37
			c0.85,0.55,1.54,1.32,2.06,2.33c0.52,1,0.96,2.12,1.32,3.33c0.24,0.67,0.38,1.31,0.41,1.92c0.03,0.61,0.2,1.31,0.5,2.1
			c0.37,1.16,0.78,2.33,1.23,3.52c0.46,1.19,0.62,2.33,0.5,3.42c-0.06,0.31-0.15,0.56-0.27,0.78c-0.12,0.21-0.27,0.47-0.46,0.78
			c-0.12,0.24-0.34,0.55-0.64,0.91c-0.31,0.37-0.61,0.64-0.91,0.82c-0.31,0.24-0.5,0.44-0.59,0.59c-0.09,0.15-0.38,0.32-0.87,0.5
			c-0.79-1.16-1.4-2.4-1.83-3.74c-0.43-1.34-0.79-2.74-1.1-4.2c-0.31-1.46-0.58-2.95-0.82-4.48c-0.24-1.52-0.55-3.07-0.91-4.66
			c-0.12-0.43-0.5-0.67-1.14-0.73c-0.64-0.06-1.37,0.14-2.19,0.59c-0.82,0.46-1.69,1.17-2.6,2.15c-0.91,0.97-1.74,2.22-2.47,3.74
			c-0.49,1.1-0.94,2.24-1.37,3.42c-0.43,1.19-0.9,2.37-1.42,3.56c-0.52,1.19-1.13,2.34-1.83,3.47c-0.7,1.13-1.54,2.15-2.51,3.06
			c-0.3,0.31-0.52,0.34-0.64,0.09c-0.12-0.24-0.43-0.46-0.91-0.64c-0.37-0.12-0.56-0.24-0.59-0.37c-0.03-0.12-0.14-0.49-0.32-1.1
			c-0.37-1.28-0.75-2.74-1.14-4.38c-0.4-1.64-0.82-3.38-1.28-5.21c-0.46-1.83-0.93-3.67-1.42-5.53c-0.49-1.86-0.97-3.61-1.46-5.25
			l-0.55-1.64c0.12-0.24,0.35-0.46,0.68-0.64c0.33-0.18,0.69-0.33,1.05-0.46c0.37-0.12,0.76-0.09,1.19,0.09
			c0.42,0.18,0.76,0.27,1,0.27c0.67,0,1.26,0.43,1.78,1.28c0.52,0.85,0.96,1.93,1.32,3.24c0.37,1.31,0.65,2.74,0.87,4.29
			C401.1,282.88,401.24,284.36,401.3,285.76z"/>
	</g>
</g>
</svg>
